<svg xmlns="http://www.w3.org/2000/svg" width="34" height="34"><path fill="#fff" d="M25.804 5.092L12.728 17.688v3.495h3.498L28.834 8.119zm.027-5.089c.541 0 1.083.207 1.495.62l5.981 5.975a2.112 2.112 0 010 2.988l-15.28 15.832H8.489v-9.53L24.336.62A2.111 2.111 0 0125.83.003zM29.687 23.3a2.12 2.12 0 014.24 0v8.472a2.12 2.12 0 01-2.12 2.119H2.129a2.12 2.12 0 01-2.12-2.119V2.122a2.12 2.12 0 012.12-2.12h8.48a2.12 2.12 0 110 4.236h-5.3a1.06 1.06 0 00-1.06 1.059v23.298c0 .585.474 1.059 1.06 1.059h23.318a1.06 1.06 0 001.06-1.06z"/></svg>